<?xml version="1.0" standalone="no"?>
<!DOCTYPE svg PUBLIC "-//W3C//DTD SVG 20010904//EN"
 "http://www.w3.org/TR/2001/REC-SVG-20010904/DTD/svg10.dtd">
<svg version="1.0" xmlns="http://www.w3.org/2000/svg"
 width="96.000000pt" height="96.000000pt" viewBox="0 0 96.000000 96.000000"
 preserveAspectRatio="xMidYMid meet">

<g transform="translate(0.000000,96.000000) scale(0.100000,-0.100000)"
fill="#000000" stroke="none">
<path d="M331 951 c-8 -5 -21 -52 -31 -112 -16 -93 -22 -108 -52 -141 -60 -63
-82 -121 -82 -218 -1 -78 2 -90 33 -148 19 -35 45 -72 58 -82 20 -15 27 -37
42 -125 11 -63 24 -111 32 -116 8 -5 76 -9 151 -9 105 0 140 3 151 14 7 8 20
56 27 106 11 80 18 97 47 133 67 80 87 132 87 227 0 95 -20 147 -87 227 -29
36 -36 53 -47 133 -7 50 -20 98 -27 106 -11 11 -46 14 -151 14 -75 0 -143 -4
-151 -9z m223 -243 c86 -26 166 -136 166 -228 0 -124 -116 -240 -240 -240
-124 0 -240 116 -240 240 0 63 23 114 75 165 70 71 145 90 239 63z"/>
<path d="M452 628 c-18 -18 -16 -162 2 -177 22 -19 126 -10 140 12 16 25 -4
51 -43 55 -30 3 -31 5 -31 51 0 49 -12 71 -40 71 -9 0 -21 -5 -28 -12z"/>
</g>
</svg>
